<svg width="800" height="600" xmlns="http://www.w3.org/2000/svg">

 <g>
  <title>Layer 1</title>
  <path id="svg_2" d="m241.9091,454.35205c14.57469,-41.98123 34.52343,-77.53498 53.44607,-95.25442c20.27257,-18.98356 11.27832,-27.21802 -9.63448,-8.82064c-8.79828,7.73994 -11.31206,2.11989 -11.31206,-25.29032c0,-65.39858 38.53668,-105.86532 131.258,-137.83169c78.45599,-27.04842 136.29809,-57.46611 160.28067,-84.28766l19.54283,-21.85637l0,38.02792c0,47.02209 -16.58327,118.06108 -34.93945,149.67273c-19.47262,33.53443 -86.21743,95.43405 -118.97018,110.33387c-29.34357,13.34903 -92.01202,17.2789 -125.50537,7.87036c-16.69111,-4.68861 -21.98835,-1.10627 -30.63681,20.7186c-5.75099,14.51296 -10.45638,35.1599 -10.45638,45.88193c0,12.17247 -5.54958,19.49455 -14.77532,19.49455c-10.95741,0 -13.10145,-4.82133 -8.2975,-18.65886l-0.00001,0z" stroke="#000" fill="#FFAFCC"/>
 </g>
</svg>
